<svg width="124" height="124" viewBox="0 0 124 124" fill="none" xmlns="http://www.w3.org/2000/svg">
<rect width="124" height="124" rx="25" fill="#007AFF"/>
<path fill-rule="evenodd" clip-rule="evenodd" d="M79.2692 23.1617L68.2497 29.5239V43.9577L74.4998 47.5662L86.9999 40.3494V27.625H99.4999V40.3493L110.519 46.7115L104.269 57.5368L93.2499 51.1747L80.7499 58.3915V65.6084L93.2499 72.8253L104.269 66.4631L110.519 77.2881L99.4999 83.6506V96.375H86.9999V83.6506L74.4997 76.4337L68.2497 80.0418V94.4756L79.2692 100.838L73.0193 111.663L61.9998 105.301L50.9801 111.664L44.7301 100.838L55.7497 94.4762V80.0418L49.4998 76.4337L36.9997 83.6506V96.375H24.4997V83.6506L13.48 77.2887L19.73 66.4632L30.7496 72.8253L43.2497 65.6084V58.3915L30.7498 51.1747L19.7302 57.5368L13.4802 46.7115L24.4997 40.3494V27.625H36.9997V40.3493L49.4997 47.5662L55.7497 43.9577V29.524L44.7301 23.1618L50.9801 12.3365L61.9996 18.6987L73.0193 12.3364L79.2692 23.1617ZM68.2497 62C68.2497 65.4517 65.4514 68.25 61.9997 68.25C58.5479 68.25 55.7497 65.4517 55.7497 62C55.7497 58.5482 58.5479 55.75 61.9997 55.75C65.4514 55.75 68.2497 58.5482 68.2497 62Z" fill="white" fill-opacity="0.9"/>
</svg>
