<svg width="20" height="20" viewBox="0 0 20 20" fill="none" xmlns="http://www.w3.org/2000/svg">
<path d="M13.4917 1.66667H6.50835C3.47502 1.66667 1.66669 3.475 1.66669 6.50833V13.4833C1.66669 16.525 3.47502 18.3333 6.50835 18.3333H13.4834C16.5167 18.3333 18.325 16.525 18.325 13.4917V6.50833C18.3334 3.475 16.525 1.66667 13.4917 1.66667ZM8.44169 12.0833C8.68335 12.325 8.68335 12.725 8.44169 12.9667C8.31669 13.0917 8.15835 13.15 8.00002 13.15C7.84169 13.15 7.68335 13.0917 7.55835 12.9667L5.48335 10.8917C4.99169 10.4 4.99169 9.60833 5.48335 9.11667L7.55835 7.04167C7.80002 6.8 8.20002 6.8 8.44169 7.04167C8.68335 7.28333 8.68335 7.68333 8.44169 7.925L6.36669 10L8.44169 12.0833ZM14.5167 10.8833L12.4417 12.9583C12.3167 13.0833 12.1584 13.1417 12 13.1417C11.8417 13.1417 11.6834 13.0833 11.5584 12.9583C11.3167 12.7167 11.3167 12.3167 11.5584 12.075L13.6334 10L11.5584 7.91667C11.3167 7.675 11.3167 7.275 11.5584 7.03333C11.8 6.79167 12.2 6.79167 12.4417 7.03333L14.5167 9.10833C15.0084 9.6 15.0084 10.4 14.5167 10.8833Z" fill="white"/>
</svg>
