<svg width="18" height="18" viewBox="0 0 18 18" fill="none" xmlns="http://www.w3.org/2000/svg">
<path d="M12.4917 0.666687H5.50835C2.47502 0.666687 0.666687 2.47502 0.666687 5.50835V12.4834C0.666687 15.525 2.47502 17.3334 5.50835 17.3334H12.4834C15.5167 17.3334 17.325 15.525 17.325 12.4917V5.50835C17.3334 2.47502 15.525 0.666687 12.4917 0.666687ZM7.25835 12.4917C7.25835 13.025 6.82502 13.4584 6.28335 13.4584C5.75002 13.4584 5.31669 13.025 5.31669 12.4917V9.77502C5.31669 9.24169 5.75002 8.80835 6.28335 8.80835C6.82502 8.80835 7.25835 9.24169 7.25835 9.77502V12.4917ZM12.6834 12.4917C12.6834 13.025 12.25 13.4584 11.7167 13.4584C11.175 13.4584 10.7417 13.025 10.7417 12.4917V5.50835C10.7417 4.97502 11.175 4.54169 11.7167 4.54169C12.25 4.54169 12.6834 4.97502 12.6834 5.50835V12.4917Z" fill="white"/>
</svg>
