<svg width="20" height="20" viewBox="0 0 20 20" fill="none" xmlns="http://www.w3.org/2000/svg">
<path d="M17.4831 2.51665C16.7581 1.79165 15.7331 1.50831 14.7415 1.75831L6.57481 3.79998C5.19981 4.14165 4.14148 5.20831 3.79981 6.57498L1.75814 14.75C1.50814 15.7416 1.79148 16.7666 2.51648 17.4916C3.06648 18.0333 3.79148 18.3333 4.54148 18.3333C4.77481 18.3333 5.01648 18.3083 5.24981 18.2416L13.4248 16.2C14.7915 15.8583 15.8581 14.8 16.1998 13.425L18.2415 5.24998C18.4915 4.25831 18.2081 3.23331 17.4831 2.51665ZM9.99981 13.2333C8.21648 13.2333 6.76648 11.7833 6.76648 9.99998C6.76648 8.21665 8.21648 6.76665 9.99981 6.76665C11.7831 6.76665 13.2331 8.21665 13.2331 9.99998C13.2331 11.7833 11.7831 13.2333 9.99981 13.2333Z" fill="white"/>
</svg>
