<svg width="20" height="20" viewBox="0 0 20 20" fill="none" xmlns="http://www.w3.org/2000/svg">
<path d="M14.6084 6.475C14.55 6.46667 14.4917 6.46667 14.4334 6.475C13.1417 6.43333 12.1167 5.375 12.1167 4.075C12.1167 2.75 13.1917 1.66667 14.525 1.66667C15.85 1.66667 16.9334 2.74167 16.9334 4.075C16.925 5.375 15.9 6.43333 14.6084 6.475Z" fill="white"/>
<path d="M17.3251 12.25C16.3918 12.875 15.0834 13.1083 13.8751 12.95C14.1918 12.2666 14.3584 11.5083 14.3668 10.7083C14.3668 9.87498 14.1834 9.08331 13.8334 8.39165C15.0668 8.22498 16.3751 8.45831 17.3168 9.08331C18.6334 9.94998 18.6334 11.375 17.3251 12.25Z" fill="white"/>
<path d="M5.36678 6.475C5.42511 6.46667 5.48344 6.46667 5.54178 6.475C6.83344 6.43333 7.85844 5.375 7.85844 4.075C7.85844 2.74167 6.78344 1.66667 5.45011 1.66667C4.12511 1.66667 3.05011 2.74167 3.05011 4.075C3.05011 5.375 4.07511 6.43333 5.36678 6.475Z" fill="white"/>
<path d="M5.45843 10.7083C5.45843 11.5167 5.63343 12.2833 5.9501 12.975C4.7751 13.1 3.5501 12.85 2.6501 12.2583C1.33343 11.3833 1.33343 9.95832 2.6501 9.08332C3.54176 8.48332 4.8001 8.24165 5.98343 8.37499C5.64176 9.07499 5.45843 9.86665 5.45843 10.7083Z" fill="white"/>
<path d="M10.0998 13.225C10.0332 13.2167 9.95815 13.2167 9.88315 13.225C8.34982 13.175 7.12482 11.9167 7.12482 10.3667C7.13315 8.78333 8.40815 7.5 9.99982 7.5C11.5832 7.5 12.8665 8.78333 12.8665 10.3667C12.8582 11.9167 11.6415 13.175 10.0998 13.225Z" fill="white"/>
<path d="M7.3915 14.95C6.13317 15.7917 6.13317 17.175 7.3915 18.0083C8.82484 18.9667 11.1748 18.9667 12.6082 18.0083C13.8665 17.1667 13.8665 15.7833 12.6082 14.95C11.1832 13.9917 8.83317 13.9917 7.3915 14.95Z" fill="white"/>
</svg>
