<svg width="20" height="20" viewBox="0 0 20 20" fill="none" xmlns="http://www.w3.org/2000/svg">
<path d="M10.5646 16.6308C10.7935 16.6841 10.8145 16.984 10.5915 17.0583L9.27486 17.4916C5.96652 18.5583 4.22486 17.6666 3.14986 14.3583L2.08319 11.0666C1.01652 7.75831 1.89986 6.00831 5.20819 4.94165L5.47552 4.85312C5.87838 4.7197 6.27397 5.12506 6.16506 5.53523C6.13438 5.65078 6.10439 5.76959 6.07486 5.89165L5.25819 9.38331C4.34152 13.3083 5.68319 15.475 9.60819 16.4083L10.5646 16.6308Z" fill="white"/>
<path d="M14.3085 2.675L12.9168 2.35C10.1335 1.69167 8.47517 2.23333 7.50017 4.25C7.25017 4.75833 7.05017 5.375 6.8835 6.08334L6.06684 9.575C5.25017 13.0583 6.32517 14.775 9.80017 15.6L11.2002 15.9333C11.6835 16.05 12.1335 16.125 12.5502 16.1583C15.1502 16.4083 16.5335 15.1917 17.2335 12.1833L18.0502 8.7C18.8668 5.21667 17.8002 3.49167 14.3085 2.675ZM12.7418 11.1083C12.6668 11.3917 12.4168 11.575 12.1335 11.575C12.0835 11.575 12.0335 11.5667 11.9752 11.5583L9.55017 10.9417C9.21684 10.8583 9.01684 10.5167 9.10017 10.1833C9.1835 9.85 9.52517 9.65 9.8585 9.73334L12.2835 10.35C12.6252 10.4333 12.8252 10.775 12.7418 11.1083ZM15.1835 8.29167C15.1085 8.575 14.8585 8.75834 14.5752 8.75834C14.5252 8.75834 14.4752 8.75 14.4168 8.74167L10.3752 7.71667C10.0418 7.63334 9.84184 7.29167 9.92517 6.95834C10.0085 6.625 10.3502 6.425 10.6835 6.50833L14.7252 7.53333C15.0668 7.60834 15.2668 7.95 15.1835 8.29167Z" fill="white"/>
</svg>
