<svg width="19" height="19" viewBox="0 0 19 19" fill="none" xmlns="http://www.w3.org/2000/svg">
<path d="M8.90625 6.2225H1.58334V12.8171C1.58334 12.8646 1.58334 12.9121 1.59125 12.9517H8.90625V6.2225Z" fill="white"/>
<path d="M6.08791 5.03501H8.90625V1.58334H6.11166V4.94001C6.11166 4.97168 6.09583 5.00334 6.08791 5.03501Z" fill="white"/>
<path d="M4.92416 4.93999V1.70999C3.16666 2.07416 2.01875 3.24582 1.68625 5.03499H4.94C4.93208 5.00332 4.92416 4.97166 4.92416 4.93999Z" fill="white"/>
<path d="M12.8408 1.58334H10.0938V5.03501H12.8408V1.58334Z" fill="white"/>
<path d="M14.0204 5.035H17.3138C16.9813 3.23 15.8175 2.05042 14.0283 1.70209V5.01125C14.0283 5.01917 14.0204 5.02709 14.0204 5.035Z" fill="white"/>
<path d="M14.0283 17.2979C15.7621 16.9575 16.9021 15.8492 17.2742 14.1392H14.0283V17.2979Z" fill="white"/>
<path d="M12.8408 14.1392H10.0938V17.4167H12.8408V14.1392Z" fill="white"/>
<path d="M10.0938 12.9517H17.4087C17.4167 12.9121 17.4167 12.8646 17.4167 12.8171V6.2225H10.0938V12.9517Z" fill="white"/>
<path d="M8.90625 14.1392H6.11166V17.4167H8.90625V14.1392Z" fill="white"/>
<path d="M1.72583 14.1392C2.09791 15.8333 3.22208 16.9417 4.92416 17.29V14.1392H1.72583Z" fill="white"/>
</svg>
