<svg width="19" height="19" viewBox="0 0 19 19" fill="none" xmlns="http://www.w3.org/2000/svg">
<path d="M5.93749 9.49998C5.93749 9.0366 6.02872 8.59383 6.19324 8.186C6.37504 7.73537 6.34383 7.19883 6.00023 6.85523L4.24191 5.09691C3.83185 4.68685 3.15433 4.70817 2.83701 5.19356C2.02672 6.43304 1.55957 7.91261 1.55957 9.49998C1.55957 11.0858 2.02579 12.564 2.83046 13.8027C3.1468 14.2897 3.82534 14.3126 4.23648 13.9025L5.99871 12.1448C6.34308 11.8013 6.37467 11.2641 6.19284 10.813C6.02857 10.4054 5.93749 9.96298 5.93749 9.49998Z" fill="white"/>
<path d="M9.50001 5.93751C9.96339 5.93751 10.4062 6.02874 10.814 6.19326C11.2646 6.37506 11.8012 6.34385 12.1448 6.00025L13.8815 4.26353C14.2908 3.85426 14.2705 3.17824 13.7865 2.86084C12.5509 2.05052 11.07 1.58334 9.47626 1.58334C7.8907 1.58334 6.41783 2.04943 5.18122 2.85388C4.69445 3.17054 4.67155 3.84911 5.08165 4.26025L6.82605 6.0091C7.17195 6.35589 7.71379 6.38532 8.16711 6.1998C8.57837 6.0315 9.02744 5.93751 9.50001 5.93751Z" fill="white"/>
<path d="M15.8143 4.7647C15.6399 4.53259 15.3022 4.52077 15.0966 4.72581L12.6903 7.12594C12.5169 7.29889 12.4978 7.57032 12.6166 7.7845C12.8988 8.29346 13.0626 8.87626 13.0626 9.5C13.0626 10.1239 12.8987 10.7069 12.6163 11.216C12.4976 11.4299 12.5165 11.7011 12.6895 11.8741L15.0966 14.2811C15.3021 14.4866 15.6401 14.475 15.8146 14.2426C16.8068 12.9209 17.393 11.2781 17.393 9.5C17.393 7.72171 16.8067 6.08515 15.8143 4.7647Z" fill="white"/>
<path d="M9.50011 13.0625C8.87618 13.0625 8.2932 12.8987 7.78413 12.6163C7.57018 12.4976 7.29906 12.5165 7.12606 12.6895L4.69524 15.1203C4.48975 15.3258 4.50137 15.6638 4.73377 15.8383C6.05542 16.8305 7.69826 17.4167 9.47636 17.4167C11.2627 17.4167 12.9071 16.8298 14.2234 15.8307C14.4539 15.6557 14.4644 15.3193 14.2598 15.1147L11.8477 12.7026C11.6759 12.5308 11.4071 12.5108 11.1938 12.6272C10.6871 12.9037 10.1115 13.0625 9.50011 13.0625Z" fill="white"/>
</svg>
