<svg width="15" height="15" viewBox="0 0 15 15" fill="none" xmlns="http://www.w3.org/2000/svg">
<g clip-path="url(#clip0_98_91)">
<path fill-rule="evenodd" clip-rule="evenodd" d="M10.0903 1.67427L8.43738 2.6286V4.79366L9.3749 5.33494L11.2499 4.25242V2.34377H13.1249V4.2524L14.7778 5.20674L13.8403 6.83054L12.1874 5.87621L10.3124 6.95874V8.04127L12.1874 9.1238L13.8403 8.16948L14.7778 9.79323L13.1249 10.7476V12.6563H11.2499V10.7476L9.37488 9.66507L8.43738 10.2063V12.3714L10.0903 13.3257L9.15282 14.9495L7.4999 13.9952L5.84694 14.9496L4.90944 13.3257L6.56238 12.3714V10.2063L5.6249 9.66507L3.74988 10.7476V12.6563H1.87488V10.7476L0.221924 9.79332L1.15943 8.16949L2.81236 9.12381L4.68738 8.04127V6.95873L2.8124 5.87621L1.15946 6.83054L0.221953 5.20674L1.87488 4.25242V2.34376H3.74988V4.2524L5.62488 5.33494L6.56238 4.79367V2.62862L4.90945 1.67429L5.84695 0.0504931L7.49987 1.00481L9.15282 0.0504761L10.0903 1.67427ZM8.43738 7.50001C8.43738 8.01777 8.01764 8.43751 7.49988 8.43751C6.98211 8.43751 6.56238 8.01777 6.56238 7.50001C6.56238 6.98224 6.98211 6.56251 7.49988 6.56251C8.01764 6.56251 8.43738 6.98224 8.43738 7.50001Z" fill="currentColor"/>
</g>
<defs>
<clipPath id="clip0_98_91">
<rect width="15" height="15" />
</clipPath>
</defs>
</svg>
